<svg width="152" height="138" viewBox="0 0 152 138" fill="none" xmlns="http://www.w3.org/2000/svg">
<path d="M10 116.924V107.208H31.56V128.04C31.56 131.204 30.58 131.876 27.388 131.876H24.336L23.748 129.104H26.856C28.088 129.104 28.228 128.768 28.228 126.808L28.284 110.26H13.36V118.184C13.36 125.464 12.856 127.9 10.392 132.268L7.424 129.916C9.692 126.36 10 124.512 10 116.924ZM14.144 119.304V116.588H19.156V115.02H14.9V112.304H19.156V110.764H22.432V112.304H26.66V115.02H22.432V116.588H27.528V119.304H14.144ZM15.208 120.872H26.212V128.236H15.208V120.872ZM18.288 125.66H23.188V123.42H18.288V125.66ZM48.444 112.864H60.736V116.364H36.544V112.864H48.276C47.436 111.072 46.232 108.944 45.42 107.516L48.92 106.06C49.872 107.74 51.132 109.924 51.944 111.464L48.444 112.864ZM50.684 119.78L53.932 117.932C56.116 121.292 59.392 127.004 61.072 129.86L57.628 131.792C55.892 128.432 52.784 123.14 50.684 119.78ZM39.372 131.988L36.264 129.804C39.092 126.5 41.724 121.824 43.348 118.156L46.876 119.472C44.832 123.756 42.004 128.6 39.372 131.988Z" fill="white"/>
<path d="M12.3584 91.756C7.26241 91.756 4.3784 87.948 4.3784 80.556C4.3784 73.164 7.26241 69.356 12.3584 69.356C17.4544 69.356 20.3384 73.164 20.3384 80.556C20.3384 87.948 17.4544 91.756 12.3584 91.756ZM12.3584 87.808C14.6544 87.808 15.9984 85.4 15.9984 80.556C15.9984 75.712 14.6544 73.304 12.3584 73.304C10.0344 73.304 8.71841 75.712 8.71841 80.556C8.71841 85.4 10.0344 87.808 12.3584 87.808ZM31.3695 91.756C26.6095 91.756 23.3615 89.124 23.3615 85.54C23.3615 82.768 25.3495 80.696 27.3935 79.912V79.828C25.7975 79.156 24.1455 77.364 24.1455 75.04C24.1455 71.764 27.0855 69.356 31.3695 69.356C35.6535 69.356 38.5935 71.764 38.5935 75.04C38.5935 77.476 36.9135 79.184 35.2895 79.828V79.912C37.3895 80.724 39.3775 82.768 39.3775 85.54C39.3775 89.124 36.1575 91.756 31.3695 91.756ZM31.3695 78.036C33.1055 78.036 34.2815 77.056 34.2815 75.6C34.2815 74.116 33.1055 73.136 31.3695 73.136C29.6335 73.136 28.4575 74.116 28.4575 75.6C28.4575 77.056 29.6335 78.036 31.3695 78.036ZM31.3695 87.92C33.5535 87.92 35.0095 86.716 35.0095 84.868C35.0095 82.992 33.5535 81.816 31.3695 81.816C29.2135 81.816 27.7295 82.992 27.7295 84.868C27.7295 86.716 29.1855 87.92 31.3695 87.92ZM48.6153 69.748H52.6473L46.0393 91.364H42.0073L48.6153 69.748ZM64.1608 91.364H59.9328V74.48L55.2008 76.944V72.548L60.6608 69.748H64.1608V91.364ZM76.8273 91.756C72.2633 91.756 68.9873 88.704 68.9873 84.392C68.9873 81.76 69.7433 79.66 71.7873 76.216L75.6793 69.748H80.6913L75.7353 77.616L75.8193 77.7C76.4353 77.364 77.1633 77.196 78.0593 77.196C81.7273 77.196 84.7793 79.968 84.7793 84.252C84.7793 88.76 81.4753 91.756 76.8273 91.756ZM76.9113 87.92C78.9833 87.92 80.4393 86.492 80.4393 84.392C80.4393 82.404 79.0393 81.004 77.0233 81.004C74.8673 81.004 73.2993 82.376 73.2993 84.392C73.2993 86.492 74.8113 87.92 76.9113 87.92Z" fill="white"/>
<path d="M17.6278 55.404C8.16377 55.404 2.80777 48.332 2.80777 34.604C2.80777 20.876 8.16377 13.804 17.6278 13.804C27.0918 13.804 32.4478 20.876 32.4478 34.604C32.4478 48.332 27.0918 55.404 17.6278 55.404ZM17.6278 48.072C21.8918 48.072 24.3878 43.6 24.3878 34.604C24.3878 25.608 21.8918 21.136 17.6278 21.136C13.3118 21.136 10.8678 25.608 10.8678 34.604C10.8678 43.6 13.3118 48.072 17.6278 48.072ZM53.9741 54.676H44.7181L53.9221 40.012L53.7661 39.908C52.6221 40.48 51.2701 40.844 49.5541 40.844C42.7421 40.844 37.1261 35.332 37.1261 27.74C37.1261 19.472 43.2101 13.804 51.8421 13.804C60.3181 13.804 66.4021 19.472 66.4021 27.428C66.4021 32.316 65.0501 36.216 61.2021 42.612L53.9741 54.676ZM51.4781 33.772C55.4821 33.772 58.3941 31.276 58.3941 27.428C58.3941 23.528 55.5861 20.928 51.6861 20.928C47.8901 20.928 45.1341 23.528 45.1341 27.428C45.1341 31.224 47.7861 33.772 51.4781 33.772ZM76.8237 29.404C73.9117 29.404 71.9877 27.376 71.9877 24.516C71.9877 21.656 73.9117 19.68 76.8237 19.68C79.7357 19.68 81.7117 21.656 81.7117 24.516C81.7117 27.376 79.7357 29.404 76.8237 29.404ZM76.8237 49.528C73.9117 49.528 71.9877 47.5 71.9877 44.64C71.9877 41.78 73.9117 39.804 76.8237 39.804C79.7357 39.804 81.7117 41.78 81.7117 44.64C81.7117 47.5 79.7357 49.528 76.8237 49.528ZM106.024 39.856L98.9001 47.344H114.5V54.676H87.1481V49.216L99.6801 36.008C104.464 31.016 105.66 28.572 105.66 25.816C105.66 23.008 103.58 20.98 100.356 20.98C97.2881 20.98 94.6881 23.112 93.4401 26.7L86.4721 23.736C88.4481 17.6 93.7521 13.804 100.616 13.804C108.312 13.804 113.668 18.588 113.668 25.504C113.668 30.028 111.484 34.188 106.024 39.856ZM134.324 55.404C125.484 55.404 119.452 50.516 119.452 43.86C119.452 38.712 123.144 34.864 126.94 33.408V33.252C123.976 32.004 120.908 28.676 120.908 24.36C120.908 18.276 126.368 13.804 134.324 13.804C142.28 13.804 147.74 18.276 147.74 24.36C147.74 28.884 144.62 32.056 141.604 33.252V33.408C145.504 34.916 149.196 38.712 149.196 43.86C149.196 50.516 143.216 55.404 134.324 55.404ZM134.324 29.924C137.548 29.924 139.732 28.104 139.732 25.4C139.732 22.644 137.548 20.824 134.324 20.824C131.1 20.824 128.916 22.644 128.916 25.4C128.916 28.104 131.1 29.924 134.324 29.924ZM134.324 48.28C138.38 48.28 141.084 46.044 141.084 42.612C141.084 39.128 138.38 36.944 134.324 36.944C130.32 36.944 127.564 39.128 127.564 42.612C127.564 46.044 130.268 48.28 134.324 48.28Z" fill="#B8FF81"/>
<path d="M124.821 85.54C121.181 85.54 119.121 82.82 119.121 77.54C119.121 72.26 121.181 69.54 124.821 69.54C128.461 69.54 130.521 72.26 130.521 77.54C130.521 82.82 128.461 85.54 124.821 85.54ZM124.821 82.72C126.461 82.72 127.421 81 127.421 77.54C127.421 74.08 126.461 72.36 124.821 72.36C123.161 72.36 122.221 74.08 122.221 77.54C122.221 81 123.161 82.72 124.821 82.72ZM138.18 85.54C134.54 85.54 132.48 82.82 132.48 77.54C132.48 72.26 134.54 69.54 138.18 69.54C141.82 69.54 143.88 72.26 143.88 77.54C143.88 82.82 141.82 85.54 138.18 85.54ZM138.18 82.72C139.82 82.72 140.78 81 140.78 77.54C140.78 74.08 139.82 72.36 138.18 72.36C136.52 72.36 135.58 74.08 135.58 77.54C135.58 81 136.52 82.72 138.18 82.72Z" fill="#B8FF81"/>
</svg>
